<svg xmlns="http://www.w3.org/2000/svg" viewBox="0 0 32 32" width="32" height="32" shape-rendering="crispEdges">
  <rect width="32" height="32" rx="6" fill="#05070b"/>
  <g transform="translate(9,3) scale(1.3)">
<rect x="5" y="-1" width="2" height="1" fill="#1a1400"/><rect x="4" y="0" width="2" height="1" fill="#1a1400"/><rect x="3" y="1" width="2" height="1" fill="#1a1400"/><rect x="2" y="2" width="3" height="1" fill="#1a1400"/><rect x="1" y="3" width="4" height="1" fill="#1a1400"/><rect x="0" y="4" width="5" height="1" fill="#1a1400"/><rect x="0" y="5" width="3" height="1" fill="#1a1400"/><rect x="2" y="6" width="3" height="1" fill="#1a1400"/><rect x="4" y="7" width="3" height="1" fill="#1a1400"/><rect x="6" y="8" width="3" height="1" fill="#1a1400"/><rect x="5" y="9" width="3" height="1" fill="#1a1400"/><rect x="4" y="10" width="3" height="1" fill="#1a1400"/><rect x="3" y="11" width="3" height="1" fill="#1a1400"/><rect x="2" y="12" width="3" height="1" fill="#1a1400"/><rect x="1" y="13" width="3" height="1" fill="#1a1400"/><rect x="0" y="14" width="3" height="1" fill="#1a1400"/><rect x="5" y="1" width="2" height="1" fill="#1a1400"/><rect x="4" y="2" width="2" height="1" fill="#1a1400"/><rect x="3" y="3" width="2" height="1" fill="#1a1400"/><rect x="2" y="4" width="3" height="1" fill="#1a1400"/><rect x="1" y="5" width="4" height="1" fill="#1a1400"/><rect x="0" y="6" width="5" height="1" fill="#1a1400"/><rect x="0" y="7" width="3" height="1" fill="#1a1400"/><rect x="2" y="8" width="3" height="1" fill="#1a1400"/><rect x="4" y="9" width="3" height="1" fill="#1a1400"/><rect x="6" y="10" width="3" height="1" fill="#1a1400"/><rect x="5" y="11" width="3" height="1" fill="#1a1400"/><rect x="4" y="12" width="3" height="1" fill="#1a1400"/><rect x="3" y="13" width="3" height="1" fill="#1a1400"/><rect x="2" y="14" width="3" height="1" fill="#1a1400"/><rect x="1" y="15" width="3" height="1" fill="#1a1400"/><rect x="0" y="16" width="3" height="1" fill="#1a1400"/><rect x="4" y="0" width="2" height="1" fill="#1a1400"/><rect x="3" y="1" width="2" height="1" fill="#1a1400"/><rect x="2" y="2" width="2" height="1" fill="#1a1400"/><rect x="1" y="3" width="3" height="1" fill="#1a1400"/><rect x="0" y="4" width="4" height="1" fill="#1a1400"/><rect x="-1" y="5" width="5" height="1" fill="#1a1400"/><rect x="-1" y="6" width="3" height="1" fill="#1a1400"/><rect x="1" y="7" width="3" height="1" fill="#1a1400"/><rect x="3" y="8" width="3" height="1" fill="#1a1400"/><rect x="5" y="9" width="3" height="1" fill="#1a1400"/><rect x="4" y="10" width="3" height="1" fill="#1a1400"/><rect x="3" y="11" width="3" height="1" fill="#1a1400"/><rect x="2" y="12" width="3" height="1" fill="#1a1400"/><rect x="1" y="13" width="3" height="1" fill="#1a1400"/><rect x="0" y="14" width="3" height="1" fill="#1a1400"/><rect x="-1" y="15" width="3" height="1" fill="#1a1400"/><rect x="6" y="0" width="2" height="1" fill="#1a1400"/><rect x="5" y="1" width="2" height="1" fill="#1a1400"/><rect x="4" y="2" width="2" height="1" fill="#1a1400"/><rect x="3" y="3" width="3" height="1" fill="#1a1400"/><rect x="2" y="4" width="4" height="1" fill="#1a1400"/><rect x="1" y="5" width="5" height="1" fill="#1a1400"/><rect x="1" y="6" width="3" height="1" fill="#1a1400"/><rect x="3" y="7" width="3" height="1" fill="#1a1400"/><rect x="5" y="8" width="3" height="1" fill="#1a1400"/><rect x="7" y="9" width="3" height="1" fill="#1a1400"/><rect x="6" y="10" width="3" height="1" fill="#1a1400"/><rect x="5" y="11" width="3" height="1" fill="#1a1400"/><rect x="4" y="12" width="3" height="1" fill="#1a1400"/><rect x="3" y="13" width="3" height="1" fill="#1a1400"/><rect x="2" y="14" width="3" height="1" fill="#1a1400"/><rect x="1" y="15" width="3" height="1" fill="#1a1400"/><rect x="5" y="0" width="2" height="1" fill="#ffcc33"/><rect x="4" y="1" width="2" height="1" fill="#ffcc33"/><rect x="3" y="2" width="2" height="1" fill="#ffcc33"/><rect x="2" y="3" width="3" height="1" fill="#ffcc33"/><rect x="1" y="4" width="4" height="1" fill="#ffcc33"/><rect x="0" y="5" width="5" height="1" fill="#ffcc33"/><rect x="0" y="6" width="3" height="1" fill="#ffcc33"/><rect x="2" y="7" width="3" height="1" fill="#ffcc33"/><rect x="4" y="8" width="3" height="1" fill="#ffcc33"/><rect x="6" y="9" width="3" height="1" fill="#ffcc33"/><rect x="5" y="10" width="3" height="1" fill="#ffcc33"/><rect x="4" y="11" width="3" height="1" fill="#ffcc33"/><rect x="3" y="12" width="3" height="1" fill="#ffcc33"/><rect x="2" y="13" width="3" height="1" fill="#ffcc33"/><rect x="1" y="14" width="3" height="1" fill="#ffcc33"/><rect x="0" y="15" width="3" height="1" fill="#ffcc33"/>
  </g>
</svg>
